<svg width="788" height="736" viewBox="0 0 788 736" fill="none" xmlns="http://www.w3.org/2000/svg">
<path d="M523.892 33.9724C524.905 30.6769 525.26 27.214 524.935 23.7815C524.61 20.349 523.612 17.0141 521.999 13.9671C520.385 10.9202 518.187 8.22096 515.53 6.02348C512.874 3.82601 509.81 2.17336 506.514 1.15988C503.219 0.146406 499.756 -0.208044 496.323 0.116768C492.891 0.441579 489.556 1.43929 486.509 3.05294C483.462 4.66659 480.763 6.86458 478.565 9.5214C476.368 12.1782 474.715 15.2419 473.702 18.5374L263.702 701.037C261.655 707.693 262.336 714.889 265.595 721.043C268.854 727.196 274.424 731.803 281.079 733.85C287.735 735.897 294.931 735.216 301.085 731.957C307.238 728.698 311.845 723.128 313.892 716.472L523.892 33.9724ZM228.632 165.17C231.076 167.608 233.016 170.505 234.339 173.694C235.663 176.883 236.344 180.302 236.344 183.755C236.344 187.208 235.663 190.627 234.339 193.816C233.016 197.005 231.076 199.901 228.632 202.34L63.4144 367.505L228.632 532.67C233.561 537.599 236.33 544.284 236.33 551.255C236.33 558.226 233.561 564.911 228.632 569.84C223.703 574.769 217.018 577.538 210.047 577.538C203.076 577.538 196.391 574.769 191.462 569.84L7.71192 386.09C5.26735 383.651 3.32785 380.755 2.00452 377.566C0.681177 374.376 0 370.958 0 367.505C0 364.052 0.681177 360.633 2.00452 357.444C3.32785 354.255 5.26735 351.358 7.71192 348.92L191.462 165.17C193.9 162.725 196.797 160.786 199.986 159.462C203.175 158.139 206.594 157.458 210.047 157.458C213.5 157.458 216.919 158.139 220.108 159.462C223.297 160.786 226.193 162.725 228.632 165.17ZM558.962 165.17C556.517 167.608 554.578 170.505 553.254 173.694C551.931 176.883 551.25 180.302 551.25 183.755C551.25 187.208 551.931 190.627 553.254 193.816C554.578 197.005 556.517 199.901 558.962 202.34L724.179 367.505L558.962 532.67C556.521 535.111 554.585 538.008 553.264 541.197C551.944 544.386 551.264 547.803 551.264 551.255C551.264 554.706 551.944 558.124 553.264 561.313C554.585 564.502 556.521 567.399 558.962 569.84C561.402 572.281 564.3 574.217 567.489 575.537C570.678 576.858 574.095 577.538 577.547 577.538C580.998 577.538 584.416 576.858 587.605 575.537C590.794 574.217 593.691 572.281 596.132 569.84L779.882 386.09C782.326 383.651 784.266 380.755 785.589 377.566C786.913 374.376 787.594 370.958 787.594 367.505C787.594 364.052 786.913 360.633 785.589 357.444C784.266 354.255 782.326 351.358 779.882 348.92L596.132 165.17C593.693 162.725 590.797 160.786 587.608 159.462C584.418 158.139 581 157.458 577.547 157.458C574.094 157.458 570.675 158.139 567.486 159.462C564.297 160.786 561.4 162.725 558.962 165.17Z" fill="white"/>
</svg>
